<svg width="17" height="22" viewBox="0 0 17 22" fill="none" xmlns="http://www.w3.org/2000/svg">
<path fill-rule="evenodd" clip-rule="evenodd" d="M15.0411 8.67644H15.0711C16.0131 8.67644 16.7842 9.50298 16.7864 10.5305L16.787 10.7757C16.791 12.5522 16.7925 13.2277 16.7903 14.9335C16.79 15.2322 16.7906 15.5623 16.7913 15.935C16.7922 16.3932 16.7932 16.9159 16.7928 17.5241C16.7905 19.9885 14.9739 21.9956 12.7334 21.9956V21.9996H8.31449C6.83558 21.9996 5.47149 21.1125 4.75452 19.6905L0.833439 11.9096C0.755546 11.7549 0.792655 11.5652 0.92271 11.4539L1.326 11.1089C1.79161 10.6622 2.41528 10.4345 3.04928 10.4793C3.69658 10.5283 4.29486 10.8527 4.70131 11.3751L5.16481 11.9562L5.17269 3.50108C5.17322 2.47197 5.94584 1.63477 6.88949 1.63477C7.83418 1.63477 8.61084 2.47251 8.61084 3.50234V7.76389C8.89055 7.54054 9.23555 7.42181 9.58914 7.42742H9.62099C10.2807 7.42742 10.8545 7.83292 11.1405 8.43069C11.4516 8.0962 11.8804 7.90592 12.3294 7.90267C13.0619 7.90267 13.6874 8.4081 13.9335 9.11122C14.2375 8.82914 14.6324 8.67409 15.0411 8.67644ZM16.0672 15.6858C16.0676 15.4118 16.0678 15.1619 16.0681 14.931L16.0681 14.9039C16.0704 13.1434 16.0712 12.4833 16.0669 10.5314C16.0655 9.91156 15.6189 9.41661 15.0711 9.41661H15.0411C14.4918 9.41661 14.0329 9.90324 14.0329 10.525V11.4221C14.0329 11.6264 13.8724 11.7921 13.6744 11.7921C13.4764 11.7921 13.3159 11.6264 13.3159 11.4221V9.76555C13.3159 9.14356 12.8808 8.63795 12.3317 8.63795C11.7794 8.63795 11.3443 9.14374 11.3443 9.76555V11.5214C11.3443 11.7258 11.1838 11.8915 10.9858 11.8915C10.7878 11.8915 10.6273 11.7258 10.6273 11.5214V9.28343C10.6273 8.66181 10.1703 8.16758 9.62099 8.16758H9.58914C9.05439 8.16758 8.61084 8.63596 8.61084 9.23536V11.7549C8.61084 11.9593 8.45032 12.125 8.25235 12.125C8.05438 12.125 7.89387 11.9593 7.89387 11.7549V9.30909C7.89387 9.30486 7.89365 9.30055 7.89344 9.29621C7.89322 9.29183 7.89299 9.28743 7.89299 9.28307C7.89299 9.2729 7.89322 9.26278 7.89344 9.25271C7.89365 9.24272 7.89387 9.23279 7.89387 9.22289V3.50234C7.89387 2.88072 7.43876 2.37475 6.88984 2.37475C6.34091 2.37475 5.88581 2.88018 5.88546 3.50144L5.87898 12.9891C5.87898 13.1453 5.78376 13.2848 5.64127 13.3373C5.49879 13.3899 5.3395 13.3446 5.24358 13.2237L4.14625 11.8453C3.86461 11.4808 3.44907 11.2535 2.99869 11.2179C2.55811 11.188 2.12541 11.3485 1.80386 11.661C1.80214 11.6625 1.80042 11.6642 1.79869 11.6658C1.79584 11.6686 1.79297 11.6713 1.79003 11.6738L1.60309 11.8348L5.39079 19.3486C5.98365 20.5247 7.10409 21.2592 8.31467 21.2592H12.7124C14.5592 21.2592 16.0634 19.5819 16.0653 17.525C16.066 16.8045 16.0667 16.2025 16.0672 15.6858Z" fill="white"/>
<path d="M4.03378 3.66251C4.23175 3.66251 4.39226 3.4968 4.39226 3.29243C4.39803 1.88023 5.50867 0.738718 6.87643 0.738718C8.24437 0.738718 9.35483 1.88023 9.36061 3.29243C9.36061 3.4968 9.52112 3.66251 9.71909 3.66251C9.91706 3.66251 10.0776 3.4968 10.0776 3.29243C10.0709 1.47202 8.63979 0 6.87643 0C5.11325 0 3.68194 1.47202 3.67529 3.29243C3.67529 3.4968 3.83581 3.66251 4.03378 3.66251Z" fill="white"/>
</svg>
