<svg width="100" height="32" viewBox="0 0 100 32" fill="none" xmlns="http://www.w3.org/2000/svg">
<path fill-rule="evenodd" clip-rule="evenodd" d="M41.1031 27.9336C40.8877 27.8117 40.6432 27.7509 40.3697 27.7509L40.3696 27.7508C40.0923 27.7508 39.8469 27.8154 39.6333 27.9446C39.4198 28.0738 39.253 28.2527 39.1332 28.4813C39.1519 28.0167 39.2607 27.6655 39.4592 27.4275C39.6578 27.1896 39.9688 27.0238 40.3921 26.9301L41.6398 26.6436L41.5723 26.2783L40.246 26.5819C39.7327 26.7018 39.3552 26.9303 39.1135 27.2675C38.8718 27.6047 38.751 28.09 38.751 28.7231C38.751 29.3301 38.8858 29.806 39.1557 30.1506C39.4254 30.4952 39.8058 30.6677 40.2966 30.6677C40.5887 30.6677 40.8474 30.606 41.0721 30.4823C41.2969 30.3587 41.4721 30.1853 41.5976 29.9625C41.7231 29.7394 41.7859 29.4837 41.7859 29.1952C41.7859 28.9143 41.726 28.6643 41.606 28.445C41.4861 28.2259 41.3184 28.0554 41.1031 27.9336ZM40.8614 30.1929C40.6984 30.2883 40.5139 30.3361 40.3078 30.3361H40.3076C40.1016 30.3361 39.916 30.2884 39.7512 30.1929C39.5864 30.0973 39.458 29.9634 39.3662 29.791C39.2744 29.6187 39.2285 29.424 39.2285 29.2066C39.2285 28.9893 39.2744 28.7983 39.3662 28.6334C39.458 28.4686 39.5855 28.3402 39.7485 28.2484C39.9115 28.1566 40.0979 28.1107 40.3077 28.1107C40.5176 28.1107 40.704 28.1566 40.867 28.2484C41.0299 28.3402 41.1565 28.4686 41.2464 28.6334C41.3363 28.7982 41.3812 28.9893 41.3812 29.2066C41.3812 29.424 41.3353 29.6187 41.2435 29.791C41.1517 29.9634 41.0244 30.0973 40.8614 30.1929ZM44.6465 28.7233C45.0175 28.727 45.2994 28.8095 45.4923 28.9705C45.6853 29.1317 45.7817 29.3639 45.7817 29.6673C45.7817 29.982 45.6777 30.2237 45.4698 30.3923C45.2618 30.5609 44.9611 30.6433 44.5677 30.6396L43.3762 30.634V27.6779H43.7753V28.712L44.6464 28.7233H44.6465ZM45.1665 30.1703C45.0259 30.2847 44.8188 30.3399 44.5454 30.3361L43.7754 30.3249V29.0097L44.5454 29.021C44.8226 29.0247 45.0306 29.0791 45.1692 29.184C45.3078 29.2889 45.3772 29.45 45.3772 29.6673C45.3772 29.8884 45.3069 30.0561 45.1665 30.1703ZM49.817 27.6553C50.0942 27.6553 50.3443 27.719 50.5672 27.8465C50.7901 27.9739 50.9653 28.1518 51.0928 28.3804C51.2201 28.609 51.2839 28.8674 51.2839 29.1559C51.2839 29.4444 51.2202 29.703 51.0928 29.9315C50.9653 30.1601 50.7902 30.339 50.5672 30.4681C50.3443 30.5974 50.0942 30.662 49.817 30.662C49.5547 30.662 49.3169 30.6048 49.1032 30.4906C48.8896 30.3763 48.7164 30.218 48.5834 30.0156C48.4503 29.8133 48.3725 29.581 48.3501 29.3187H47.6757V30.6339H47.2766V27.6778H47.6757V28.9535H48.3557C48.3856 28.6988 48.4671 28.473 48.6001 28.2763C48.7331 28.0796 48.9046 27.927 49.1143 27.8183C49.3241 27.7097 49.5583 27.6553 49.8169 27.6553H49.817ZM50.365 30.1676C50.202 30.265 50.0193 30.3137 49.817 30.3137C49.6147 30.3137 49.432 30.2651 49.269 30.1676C49.106 30.0702 48.9777 29.9334 48.8841 29.7573C48.7903 29.5812 48.7435 29.3807 48.7435 29.1559C48.7435 28.9311 48.7904 28.7306 48.8841 28.5546C48.9777 28.3784 49.106 28.2426 49.269 28.147C49.432 28.0516 49.6147 28.0038 49.817 28.0038C50.0193 28.0038 50.202 28.0515 50.365 28.147C50.5279 28.2426 50.6563 28.3785 50.7499 28.5546C50.8435 28.7306 50.8904 28.9311 50.8904 29.1559C50.8904 29.3808 50.8435 29.5812 50.7499 29.7573C50.6562 29.9334 50.5279 30.0702 50.365 30.1676ZM54.8413 28.0319H53.723V30.634H53.3239V28.0319H52.2055V27.6779H54.8413V28.0319ZM56.5556 27.6779H56.1565V30.634H56.5162L58.4832 28.2849V30.634H58.8823V27.6779H58.5282L56.5556 30.027V27.6779ZM64.0414 29.3189H63.3671V30.6341H62.968V27.678H63.3671V28.9762H64.0471L65.0868 27.678H65.5195L64.3562 29.1111L65.6038 30.6341H65.1317L64.0414 29.3189ZM67.3124 30.4683C67.541 30.5975 67.7976 30.6621 68.0823 30.6621C68.3671 30.6621 68.6237 30.5975 68.8523 30.4683C69.0807 30.3391 69.2597 30.1602 69.3889 29.9316C69.5182 29.7031 69.5828 29.4446 69.5828 29.1561C69.5828 28.8676 69.5182 28.6092 69.3889 28.3806C69.2598 28.152 69.0809 27.9741 68.8523 27.8466C68.6238 27.7191 68.3671 27.6555 68.0823 27.6555C67.7976 27.6555 67.541 27.7193 67.3124 27.8466C67.0838 27.9741 66.9039 28.152 66.7729 28.3806C66.6418 28.609 66.5762 28.8676 66.5762 29.1561C66.5762 29.4446 66.6418 29.703 66.7729 29.9316C66.9039 30.1602 67.0838 30.339 67.3124 30.4683ZM68.0823 30.3081C68.2921 30.3081 68.4804 30.2603 68.6471 30.1647C68.8139 30.0692 68.9441 29.9334 69.0377 29.7573C69.1313 29.5812 69.1781 29.3808 69.1781 29.1559C69.1781 28.9311 69.1313 28.7306 69.0377 28.5546C68.9441 28.3785 68.8139 28.2426 68.6471 28.147C68.4804 28.0515 68.2921 28.0038 68.0823 28.0038C67.8725 28.0038 67.6843 28.0516 67.5175 28.147C67.3508 28.2426 67.2197 28.3784 67.1241 28.5546C67.0285 28.7306 66.9807 28.9311 66.9807 29.1559C66.9807 29.3807 67.0285 29.5812 67.1241 29.7573C67.2197 29.9334 67.3508 30.0693 67.5175 30.1647C67.6843 30.2603 67.8725 30.3081 68.0823 30.3081ZM73.6575 29.8303C73.6575 29.4407 73.457 29.199 73.0561 29.1054H73.056C73.2134 29.0492 73.336 28.9639 73.4241 28.8497C73.5123 28.7353 73.5562 28.5977 73.5562 28.4366C73.5562 28.1931 73.4608 28.0057 73.2696 27.8746C73.0785 27.7435 72.8144 27.6779 72.4773 27.6779H71.1734V30.634H72.5166C72.8949 30.634 73.1797 30.5646 73.3708 30.426C73.5619 30.2874 73.6575 30.0889 73.6575 29.8303ZM71.5612 28.993H72.4491C72.6777 28.993 72.8528 28.9499 72.9747 28.8637C73.0964 28.7775 73.1574 28.6519 73.1574 28.4871C73.1574 28.3222 73.0964 28.1986 72.9747 28.1162C72.8529 28.0337 72.6777 27.9925 72.4491 27.9925H71.5612V28.9928V28.993ZM73.073 30.1956C72.9456 30.2781 72.7545 30.3193 72.4997 30.3193H72.4996H71.5611V29.2908H72.539C72.79 29.2908 72.9736 29.3329 73.0898 29.4172C73.206 29.5015 73.2641 29.6317 73.2641 29.8078C73.2641 29.9838 73.2004 30.1131 73.073 30.1956ZM76.5461 30.6621C76.2614 30.6621 76.0048 30.5975 75.7762 30.4683C75.5476 30.339 75.3677 30.1602 75.2367 29.9316C75.1056 29.703 75.04 29.4446 75.04 29.1561C75.04 28.8676 75.1056 28.609 75.2367 28.3806C75.3677 28.152 75.5476 27.9741 75.7762 27.8466C76.0048 27.7193 76.2614 27.6555 76.5461 27.6555C76.8309 27.6555 77.0876 27.7191 77.3161 27.8466C77.5447 27.9741 77.7236 28.152 77.8527 28.3806C77.982 28.6092 78.0466 28.8676 78.0466 29.1561C78.0466 29.4446 77.982 29.7031 77.8527 29.9316C77.7235 30.1602 77.5445 30.3391 77.3161 30.4683C77.0875 30.5975 76.8309 30.6621 76.5461 30.6621ZM77.1109 30.1647C76.9442 30.2603 76.7559 30.3081 76.5461 30.3081C76.3363 30.3081 76.1481 30.2603 75.9813 30.1647C75.8146 30.0693 75.6835 29.9334 75.5879 29.7573C75.4923 29.5812 75.4445 29.3807 75.4445 29.1559C75.4445 28.9311 75.4923 28.7306 75.5879 28.5546C75.6835 28.3784 75.8146 28.2426 75.9813 28.147C76.1481 28.0516 76.3363 28.0038 76.5461 28.0038C76.7559 28.0038 76.9442 28.0515 77.1109 28.147C77.2777 28.2426 77.4079 28.3785 77.5015 28.5546C77.5951 28.7306 77.6419 28.9311 77.6419 29.1559C77.6419 29.3808 77.5951 29.5812 77.5015 29.7573C77.4079 29.9334 77.2777 30.0692 77.1109 30.1647ZM81.1602 27.6555C81.4374 27.6555 81.6885 27.7182 81.9133 27.8437C82.138 27.9693 82.3142 28.1463 82.4415 28.3749C82.569 28.6034 82.6327 28.8638 82.6327 29.1561C82.6327 29.4521 82.569 29.7144 82.4415 29.9429C82.3142 30.1715 82.139 30.3485 81.9161 30.474C81.6933 30.5995 81.4412 30.6622 81.1602 30.6622C80.9205 30.6622 80.704 30.6126 80.5111 30.5134C80.3182 30.4141 80.1599 30.269 80.0362 30.0779V31.7246H79.637V27.6782H80.0193V28.2626C80.1391 28.0678 80.2974 27.9179 80.4941 27.813C80.6908 27.7081 80.9128 27.6556 81.1601 27.6556L81.1602 27.6555ZM81.694 30.1647C81.5255 30.2603 81.3381 30.3081 81.1321 30.3081C80.9223 30.3081 80.734 30.2603 80.5673 30.1647C80.4005 30.0693 80.2694 29.9334 80.1739 29.7573C80.0784 29.5812 80.0306 29.3807 80.0306 29.1559C80.0306 28.9311 80.0783 28.7317 80.1739 28.5574C80.2694 28.3832 80.4005 28.2474 80.5673 28.1499C80.734 28.0525 80.9223 28.0038 81.1321 28.0038C81.3381 28.0038 81.5255 28.0525 81.694 28.1499C81.8627 28.2474 81.9947 28.3832 82.0903 28.5574C82.1858 28.7317 82.2337 28.9311 82.2337 29.1559C82.2337 29.3808 82.1858 29.5812 82.0903 29.7573C81.9947 29.9334 81.8626 30.0692 81.694 30.1647ZM85.3021 29.3189H84.6278V30.6341H84.2287V27.678H84.6278V28.9762H85.3078L86.3475 27.678H86.7802L85.6169 29.1111L86.8645 30.6341H86.3924L85.3021 29.3189ZM88.6292 27.6779H88.2301V30.634H88.5898L90.5568 28.2849V30.634H90.9559V27.6779H90.6018L88.6292 30.027V27.6779ZM92.8329 27.6779H93.232V28.9874H95.0922V27.6779H95.4913V30.634H95.0922V29.3301H93.232V30.634H92.8329V27.6779ZM97.7618 28.0319H99.4534V27.6779H97.3627V30.634H97.7618V28.0319Z" fill="white"/>
<path fill-rule="evenodd" clip-rule="evenodd" d="M0.854354 23.294L11.2575 17.2878C11.2542 17.2409 11.2525 17.1934 11.2525 17.1457L11.2551 17.0484L0.854484 11.0435V23.294H0.854354ZM13.5955 15.286C13.9477 15.3683 14.2627 15.5481 14.5108 15.7953C14.6342 15.9191 14.7404 16.0595 14.8268 16.2124L25.0579 10.3053L13.5955 3.68742V15.286ZM15.0696 17.0552L15.0718 17.1457C15.0718 17.191 15.0702 17.2362 15.0672 17.2807L25.4828 23.2941V11.0436L15.0698 17.0554L15.0696 17.0552ZM14.8075 18.1141C14.7255 18.2533 14.6255 18.3809 14.5125 18.4945C14.2635 18.7429 13.9477 18.9236 13.5955 19.0055V30.6502L25.0579 24.0323L14.8075 18.1141ZM12.7415 19.0085C12.3842 18.9278 12.0639 18.7463 11.8134 18.4962C11.7011 18.3835 11.6026 18.2571 11.5205 18.1196L1.27913 24.0323L12.7415 30.6502V19.0085ZM11.5004 16.2066C11.5853 16.0563 11.6903 15.9189 11.8116 15.7971C12.0635 15.5457 12.384 15.3638 12.7414 15.2831V3.68755L1.279 10.3055L11.5004 16.2066ZM13.9095 16.3982C13.7187 16.2077 13.454 16.0899 13.162 16.0899C12.87 16.0899 12.6053 16.2081 12.4145 16.3982C12.224 16.5891 12.1062 16.8537 12.1062 17.1457C12.1062 17.4377 12.2244 17.7025 12.4145 17.8932C12.6054 18.0832 12.87 18.2016 13.162 18.2016C13.454 18.2016 13.7188 18.0837 13.9095 17.8932C14.0995 17.7024 14.2178 17.4377 14.2178 17.1457C14.2178 16.8537 14.0999 16.589 13.9095 16.3982ZM13.4079 2.59578L26.0969 9.92204C26.2386 9.99167 26.3364 10.1368 26.3364 10.3055V24.0323V24.039V24.0433L26.3359 24.0459L26.3351 24.0597V24.0652L26.3346 24.0665L26.3342 24.0734V24.076L26.3333 24.0803L26.3329 24.0868L26.3325 24.0871L26.3312 24.0974L26.3304 24.1008C26.3073 24.2395 26.219 24.3557 26.0969 24.4158L13.4079 31.7421L13.4071 31.7425L13.4045 31.7442L13.4015 31.7463L13.3985 31.7479L13.3981 31.7483L13.3952 31.7505L13.3918 31.7522L13.3897 31.7535L13.3884 31.7543L13.3851 31.7565L13.3817 31.7582L13.3812 31.7586L13.3804 31.759L13.3787 31.7603L13.3753 31.7619L13.3723 31.7636L13.3718 31.7641L13.3685 31.7658L13.3651 31.7675L13.3629 31.7688L13.3612 31.7692L13.3578 31.7709L13.3545 31.7726L13.3537 31.773L13.3511 31.7743L13.3477 31.7759L13.3443 31.7776H13.3438L13.3404 31.7793L13.3366 31.7806L13.3349 31.7815L13.3332 31.7823L13.3298 31.7836L13.3259 31.7853L13.3255 31.7857L13.3222 31.7866L13.3188 31.7879L13.3158 31.7892L13.315 31.7896L13.3117 31.7909L13.3078 31.7922L13.3061 31.7925L13.3039 31.7934L13.3 31.7947L13.2966 31.796H13.2957L13.2927 31.7969L13.2888 31.7982L13.2859 31.799H13.285L13.2811 31.8003L13.2772 31.8011L13.2755 31.8016L13.2733 31.8024L13.2694 31.8033L13.2655 31.8042H13.2651L13.2617 31.8051L13.2575 31.8059L13.2545 31.8068H13.2537L13.2498 31.8077L13.2459 31.8085H13.2442L13.242 31.809L13.2378 31.8099L13.2339 31.8103H13.2335L13.2301 31.8112L13.2258 31.8116L13.2228 31.812H13.2219L13.2177 31.8125L13.2138 31.8129L13.2121 31.8133H13.2095L13.2056 31.8138L13.2013 31.8142L13.1974 31.8147H13.1931L13.1902 31.8151H13.1889H13.185L13.1807 31.8155H13.1794H13.1764H13.1725H13.1683H13.164H13.1601H13.1571H13.1558L13.1515 31.8151H13.1476H13.1463L13.1434 31.8147H13.1391L13.1352 31.8142L13.1309 31.8138L13.127 31.8133H13.1244L13.1227 31.8129L13.1189 31.8125L13.1146 31.812H13.1137L13.1107 31.8116L13.1064 31.8112L13.103 31.8103H13.1026L13.0988 31.8099L13.0945 31.809L13.0923 31.8085H13.0906L13.0867 31.8077L13.0828 31.8068H13.0819L13.0789 31.8059L13.0746 31.8051L13.0713 31.8042H13.0709L13.067 31.8033L13.0631 31.8024L13.061 31.8016L13.0593 31.8011L13.0554 31.8003L13.0516 31.799H13.0506L13.0477 31.7982L13.0438 31.7969L13.0408 31.796H13.0404L13.0365 31.7947L13.0326 31.7934L13.0304 31.7925L13.0287 31.7922L13.0248 31.7909L13.0215 31.7896L13.0206 31.7892L13.0176 31.7879L13.0142 31.7866L13.0108 31.7857L13.0105 31.7853L13.0066 31.7836L13.0032 31.7823L13.0015 31.7815L12.9998 31.7806L12.9959 31.7793L12.9926 31.7776H12.9922L12.9888 31.7759L12.9854 31.7743L12.9828 31.773L12.9819 31.7726L12.9786 31.7709L12.9752 31.7692L12.9735 31.7688L12.9713 31.7675L12.9679 31.7658L12.9646 31.7641L12.9642 31.7636L12.9612 31.7619L12.9578 31.7603L12.9561 31.759L12.9552 31.7586L12.9548 31.7582L12.9515 31.7565L12.9481 31.7543L12.9468 31.7535L12.9446 31.7522L12.9412 31.7505L12.9382 31.7483L12.9378 31.7479L12.9349 31.7463L12.9319 31.7442L12.9293 31.7425L12.9285 31.7421L0.239489 24.4158C0.0977664 24.3462 0 24.2011 0 24.0324V10.3056V10.2987V10.2944L0.000388991 10.2918L0.00129664 10.2781V10.2725L0.00168563 10.2712L0.00220428 10.2644V10.2618L0.00311193 10.2575L0.00350092 10.251L0.00388991 10.2506L0.00518655 10.2404L0.00609419 10.237C0.0291743 10.0983 0.117475 9.9822 0.239618 9.92191L12.9286 2.59565L12.9294 2.59526L12.932 2.59358L12.935 2.59137L12.938 2.58969L12.9384 2.5893L12.9413 2.58709L12.9447 2.58489L12.9469 2.58411L12.9482 2.5832L12.9516 2.581L12.955 2.5788H12.9553L12.9579 2.57711L12.9613 2.57491L12.9643 2.57361L12.9647 2.57322L12.9681 2.57153L12.9714 2.56933L12.9736 2.56855L12.9753 2.56764L12.9787 2.56596L12.9821 2.56427H12.983L12.9856 2.56259L12.9889 2.5609L12.9915 2.55999L12.9924 2.55961H12.9928L12.9962 2.55792L13.0001 2.55623L13.0018 2.55585L13.0035 2.55494L13.0068 2.55325L13.009 2.55234L13.0107 2.55183L13.0111 2.55144L13.0145 2.55014L13.0178 2.54884L13.0208 2.54794L13.0217 2.54755L13.0251 2.54625L13.029 2.54495L13.0307 2.54443L13.0329 2.54366L13.0368 2.54236L13.0407 2.54106H13.0411L13.044 2.53977L13.0479 2.53899L13.0509 2.53808L13.0518 2.53756L13.0557 2.53678L13.0596 2.53549H13.0613L13.0634 2.53458L13.0672 2.53367L13.0711 2.53277H13.0715L13.0749 2.53199L13.0792 2.53108L13.0822 2.53017H13.0831L13.087 2.52939L13.0908 2.52849H13.0925L13.0947 2.52797L13.099 2.52719L13.1029 2.52667H13.1033L13.1067 2.52589L13.1109 2.52537L13.1139 2.52499H13.1148L13.1191 2.5246L13.1208 2.52408L13.1247 2.52369H13.1273L13.1312 2.52317L13.1354 2.52278L13.1393 2.52239H13.1436L13.1466 2.52187H13.1479H13.1518L13.1561 2.52148H13.1574H13.1603H13.1642H13.1685H13.1728H13.1767H13.1797H13.181L13.1852 2.52187H13.1891H13.1904L13.1934 2.52239H13.1977L13.2016 2.52278L13.2059 2.52317L13.2097 2.52369H13.2123L13.2162 2.52408L13.2179 2.5246L13.2222 2.52499H13.2231L13.2261 2.52537L13.2304 2.52589L13.2337 2.52667H13.2341L13.238 2.52719L13.2423 2.52797L13.2445 2.52849H13.2462L13.2501 2.52939L13.254 2.53017H13.2547L13.2577 2.53108L13.262 2.53199L13.2654 2.53277H13.2658L13.2697 2.53367L13.2735 2.53458L13.2757 2.53549H13.2774L13.2813 2.53678L13.2852 2.53756L13.2861 2.53808L13.2891 2.53899L13.293 2.53977L13.296 2.54106H13.2969L13.3003 2.54236L13.3041 2.54366L13.3063 2.54443L13.308 2.54495L13.3119 2.54625L13.3153 2.54755L13.3161 2.54794L13.3191 2.54884L13.3224 2.55014L13.3258 2.55144L13.3262 2.55183L13.3284 2.55234L13.3301 2.55325L13.3334 2.55494L13.3351 2.55585L13.3368 2.55623L13.3407 2.55792L13.3441 2.55961H13.3446L13.3454 2.55999L13.348 2.5609L13.3513 2.56259L13.3539 2.56427H13.3547L13.3581 2.56596L13.3615 2.56764L13.3631 2.56855L13.3653 2.56933L13.3687 2.57153L13.3721 2.57322L13.3726 2.57361L13.3756 2.57491L13.379 2.57711L13.3816 2.5788H13.3821L13.3854 2.581L13.3888 2.5832L13.3901 2.58411L13.3922 2.58489L13.3956 2.58709L13.3985 2.5893L13.3989 2.58969L13.4019 2.59137L13.4049 2.59358L13.4075 2.59526L13.4083 2.59565L13.4079 2.59578Z" fill="url(#paint0_linear_41_4444)"/>
<path fill-rule="evenodd" clip-rule="evenodd" d="M73.0146 6.63839C74.5422 6.63839 75.9353 6.982 77.1934 7.66818C77.8232 8.0114 78.3867 8.42217 78.8824 8.89947C79.3794 9.37767 79.8092 9.92238 80.1705 10.5321C80.5312 11.1414 80.8027 11.7928 80.9837 12.4853C81.1647 13.1756 81.2552 13.9044 81.2552 14.6687C81.2552 15.433 81.1647 16.1626 80.9837 16.8555C80.8031 17.5492 80.5316 18.205 80.1705 18.8199C79.8094 19.435 79.3794 19.9842 78.8828 20.4644C78.3876 20.9434 77.8236 21.3559 77.1934 21.6996C76.5651 22.0424 75.9007 22.3003 75.2038 22.4715C74.5063 22.6432 73.7757 22.7294 73.0145 22.7294C72.1324 22.7294 71.2999 22.6175 70.5177 22.3951C69.7363 22.1731 69.0046 21.8376 68.3245 21.3905C67.6452 20.9439 67.0629 20.4184 66.58 19.8143C66.3106 19.4774 66.072 19.1163 65.864 18.7307V22.6397H64.7737V0H65.864V10.6197C66.0732 10.2376 66.3136 9.87895 66.5851 9.54428C67.07 8.94615 67.6568 8.42269 68.3415 7.97613C69.0263 7.52996 69.7594 7.19478 70.5376 6.9724C71.3168 6.75003 72.143 6.63852 73.0143 6.63852L73.0146 6.63839ZM56.9289 2.82719C57.0536 2.8775 57.1906 2.90356 57.3358 2.90356V2.90382C57.4719 2.90382 57.6026 2.87737 57.7256 2.82654C57.8438 2.7774 57.9578 2.70219 58.0641 2.60274C58.1708 2.50277 58.2519 2.39476 58.3057 2.2804C58.3625 2.15955 58.3915 2.03235 58.3915 1.90048C58.3915 1.75954 58.363 1.62676 58.3066 1.50293C58.2507 1.38209 58.1678 1.2733 58.0585 1.17761C57.846 0.991019 57.6043 0.897143 57.3358 0.897143C57.1924 0.897143 57.057 0.921001 56.9324 0.967939C56.8069 1.01566 56.6933 1.08749 56.5913 1.18305C56.3838 1.37729 56.2796 1.61678 56.2796 1.90035C56.2796 2.03131 56.3065 2.15683 56.3598 2.27599C56.4114 2.39165 56.4874 2.50056 56.5861 2.59833C56.6876 2.69908 56.8021 2.77597 56.9289 2.82719ZM53.3546 7.05254L45.6915 22.6395H44.774C42.6556 18.3156 40.5289 13.9949 38.4023 9.67448L36.9521 6.72799H38.1885L45.233 21.211L52.2775 6.72799H53.5138L53.3546 7.05241V7.05254ZM57.0164 6.72812H57.0166H57.881V22.6397H56.7907V6.72812H57.0164ZM74.9405 21.4848C74.3326 21.6341 73.69 21.7093 73.0146 21.7093H73.0143C72.3389 21.7093 71.6964 21.6341 71.0884 21.4848C70.4801 21.3353 69.9012 21.1099 69.3547 20.8106C68.8087 20.5114 68.321 20.1531 67.8946 19.7369C67.469 19.3211 67.1005 18.8442 66.791 18.3092C66.4828 17.7751 66.251 17.2038 66.0964 16.598C65.9418 15.9921 65.8642 15.3483 65.8642 14.6686C65.8642 13.9888 65.9418 13.345 66.0964 12.7392C66.2508 12.133 66.4832 11.5617 66.7914 11.0276C67.0992 10.4941 67.4676 10.0192 67.8946 9.60471C68.3208 9.19147 68.8074 8.83658 69.353 8.54289C69.9012 8.24778 70.4802 8.02579 71.0877 7.87849C71.6953 7.73159 72.3383 7.65781 73.0145 7.65781C73.6908 7.65781 74.3338 7.73159 74.9413 7.87849C75.5487 8.02592 76.1282 8.24791 76.6759 8.54289C77.2221 8.83671 77.7087 9.19147 78.1344 9.60471C78.5617 10.0192 78.9302 10.4939 79.2381 11.0276C79.5463 11.5617 79.7785 12.1329 79.9331 12.7392C80.0872 13.3451 80.1649 13.9893 80.1649 14.6686C80.1649 15.3479 80.0872 15.9922 79.9331 16.598C79.7785 17.2043 79.5463 17.776 79.2381 18.3101C78.9297 18.8442 78.5614 19.3201 78.134 19.7373C77.7071 20.154 77.22 20.5127 76.6744 20.8106C76.1269 21.1103 75.548 21.3358 74.9405 21.4848ZM99.7746 14.8946H85.3142C85.3479 16.1583 85.6669 17.2961 86.2688 18.3062C86.5882 18.8416 86.969 19.3194 87.4087 19.7356C87.8471 20.151 88.3488 20.5097 88.9115 20.8089C89.4724 21.1086 90.0706 21.3337 90.705 21.4835C91.3404 21.6337 92.0119 21.7093 92.7176 21.7093C93.2685 21.7093 93.8016 21.6594 94.3161 21.5603C94.8314 21.4613 95.3301 21.3118 95.8096 21.1142C96.2861 20.9173 96.722 20.6749 97.1156 20.3883C97.507 20.1036 97.8567 19.7736 98.1637 19.4L98.3156 19.2151L99.0981 19.9477L98.9534 20.1107C98.579 20.5334 98.1611 20.907 97.7008 21.2301C97.241 21.5528 96.7367 21.8273 96.1877 22.0537C95.6412 22.2783 95.0777 22.4483 94.5 22.5604C93.922 22.6723 93.3263 22.7291 92.7175 22.7291C91.105 22.7291 89.6589 22.3859 88.3803 21.7003C87.7395 21.357 87.1661 20.9442 86.6622 20.4651C86.158 19.9852 85.7216 19.4366 85.355 18.8213C84.9883 18.2057 84.7116 17.5495 84.528 16.8561C84.3447 16.1632 84.2526 15.4336 84.2526 14.6685C84.2526 13.9051 84.3376 13.1772 84.5075 12.4876C84.6769 11.7981 84.9322 11.1474 85.2713 10.5374C85.6116 9.92692 86.0168 9.38117 86.4856 8.90388C86.954 8.42658 87.4884 8.01451 88.087 7.67038C89.2829 6.98265 90.6244 6.63813 92.1104 6.63813C92.841 6.63813 93.5411 6.72267 94.2093 6.89214C94.8778 7.06122 95.5144 7.31524 96.1164 7.65379C96.7179 7.99156 97.2579 8.39624 97.7332 8.86368C98.2079 9.33202 98.619 9.86403 98.9641 10.4587C99.3095 11.0547 99.5695 11.6929 99.7415 12.371C99.914 13.0468 100 13.7637 100 14.5188V14.8941H99.7743L99.7746 14.8946ZM90.337 7.86721C90.8968 7.72809 91.4889 7.65807 92.1106 7.65807L92.1104 7.65768C92.7326 7.65768 93.3247 7.7277 93.8849 7.86734C94.445 8.00699 94.9782 8.21692 95.4816 8.49621C95.9857 8.77551 96.4421 9.10848 96.8486 9.49397C97.2559 9.87998 97.6149 10.3201 97.9236 10.8115C98.2318 11.3021 98.4713 11.8234 98.6408 12.372C98.7885 12.8497 98.8841 13.3513 98.9268 13.8748H85.3259C85.3682 13.3506 85.4626 12.8489 85.6077 12.3716C85.7747 11.8226 86.0112 11.3014 86.3143 10.8099C86.6171 10.3194 86.9722 9.87972 87.3761 9.49462C87.7806 9.10913 88.2357 8.77577 88.7394 8.49647C89.2428 8.2177 89.7761 8.00764 90.337 7.86721Z" fill="white"/>
<defs>
<linearGradient id="paint0_linear_41_4444" x1="28.2798" y1="14.6878" x2="9.58471" y2="-1.68013" gradientUnits="userSpaceOnUse">
<stop stop-color="#C88C61"/>
<stop offset="1" stop-color="#EBBE9C"/>
</linearGradient>
</defs>
</svg>
